<svg viewBox="0 0 595 150" fill="none" xmlns="http://www.w3.org/2000/svg">
  <g clip-path="url(#clip0_256_829)">
    <path d="M443.385 37.0048V104.324C443.385 124.761 460.487 141.329 481.584 141.329H481.609C502.705 141.329 519.313 124.552 519.313 104.114L519.807 70.6645V37.0048C519.807 16.5676 502.705 0 481.609 0L481.584 0C460.487 0 443.385 16.5676 443.385 37.0048Z" fill="url(#paint0_linear_256_829)"/>
    <path d="M519.312 104.09L519.313 104.114C519.313 124.552 535.92 141.119 557.016 141.119H557.041C578.138 141.119 595.24 124.552 595.24 104.114V104.09C595.24 83.6527 578.138 67.0851 557.041 67.0851H557.016C535.92 67.0851 519.312 83.6527 519.312 104.09Z" fill="url(#paint1_linear_256_829)"/>
    <path d="M519.313 103.503L519.56 75.4712C519.56 75.4712 520.055 89.3675 528.958 79.3047C529.206 81.461 519.313 103.503 519.313 103.503Z" fill="url(#paint2_linear_256_829)"/>
    <path d="M521.038 97.7536C521.038 97.7536 505.928 118.069 515.108 121.233C515.356 120.994 519.065 112.369 523.517 121.233C524.258 119.185 521.038 97.7536 521.038 97.7536Z" fill="url(#paint3_linear_256_829)"/>
    <path d="M11.9701 136.112V16.4113H33.5162V61.7266H36.5942C37.5062 59.9026 38.9313 58.0786 40.8693 56.2546C42.8073 54.4306 45.3723 52.9485 48.5643 51.8085C51.8703 50.5545 56.0314 49.9275 61.0474 49.9275C67.6594 49.9275 73.4165 51.4665 78.3185 54.5445C83.3345 57.5086 87.2105 61.6696 89.9466 67.0276C92.6826 72.2717 94.0506 78.4277 94.0506 85.4957V136.112H72.5045V87.2057C72.5045 80.8217 70.9084 76.0337 67.7164 72.8417C64.6384 69.6496 60.1924 68.0536 54.3783 68.0536C47.7663 68.0536 42.6363 70.2766 38.9883 74.7227C35.3402 79.0547 33.5162 85.1537 33.5162 93.0198V136.112H11.9701Z" fill="white"/>
    <path d="M148.326 137.48C141.714 137.48 135.9 135.998 130.884 133.034C125.982 129.956 122.163 125.738 119.427 120.38C116.691 115.022 115.323 108.866 115.323 101.912V51.2955H136.869V100.202C136.869 106.586 138.408 111.374 141.486 114.566C144.678 117.758 149.181 119.354 154.995 119.354C161.607 119.354 166.737 117.188 170.385 112.856C174.033 108.41 175.857 102.254 175.857 94.3878V51.2955H197.403V136.112H176.199V124.997H173.121C171.753 127.847 169.188 130.64 165.426 133.376C161.664 136.112 155.964 137.48 148.326 137.48Z" fill="white"/>
    <path d="M272.338 138.506C264.7 138.506 258.829 137.195 254.725 134.573C250.621 131.951 247.6 129.044 245.662 125.852H242.584V136.112H221.38V16.4113H242.926V61.0426H246.004C247.258 58.9906 248.911 57.0526 250.963 55.2286C253.129 53.4045 255.922 51.9225 259.342 50.7825C262.876 49.5285 267.208 48.9015 272.338 48.9015C279.178 48.9015 285.505 50.6115 291.319 54.0315C297.133 57.3376 301.807 62.2396 305.341 68.7376C308.875 75.2357 310.642 83.1017 310.642 92.3358V95.0718C310.642 104.306 308.875 112.172 305.341 118.67C301.807 125.168 297.133 130.127 291.319 133.547C285.505 136.853 279.178 138.506 272.338 138.506ZM265.84 119.696C272.452 119.696 277.981 117.587 282.427 113.369C286.873 109.037 289.096 102.767 289.096 94.5588V92.8488C289.096 84.6407 286.873 78.4277 282.427 74.2097C278.095 69.8776 272.566 67.7116 265.84 67.7116C259.228 67.7116 253.699 69.8776 249.253 74.2097C244.807 78.4277 242.584 84.6407 242.584 92.8488V94.5588C242.584 102.767 244.807 109.037 249.253 113.369C253.699 117.587 259.228 119.696 265.84 119.696Z" fill="white"/>
    <path d="M365.652 138.506C354.594 138.506 345.531 136.112 338.463 131.324C331.395 126.536 327.12 119.696 325.638 110.804L345.474 105.674C346.272 109.664 347.583 112.799 349.407 115.079C351.345 117.359 353.682 119.012 356.418 120.038C359.268 120.95 362.346 121.406 365.652 121.406C370.668 121.406 374.373 120.551 376.767 118.841C379.161 117.017 380.358 114.794 380.358 112.172C380.358 109.55 379.218 107.555 376.938 106.187C374.658 104.705 371.01 103.508 365.994 102.596L361.206 101.741C355.278 100.601 349.863 99.0618 344.961 97.1238C340.059 95.0718 336.126 92.2788 333.162 88.7448C330.198 85.2107 328.716 80.6507 328.716 75.0647C328.716 66.6286 331.794 60.1876 337.95 55.7416C344.106 51.1815 352.2 48.9015 362.232 48.9015C371.694 48.9015 379.56 51.0105 385.83 55.2286C392.1 59.4466 396.205 64.9756 398.143 71.8157L378.135 77.9717C377.223 73.6397 375.342 70.5616 372.492 68.7376C369.756 66.9136 366.336 66.0016 362.232 66.0016C358.128 66.0016 354.993 66.7426 352.827 68.2246C350.661 69.5926 349.578 71.5306 349.578 74.0387C349.578 76.7747 350.718 78.8267 352.998 80.1947C355.278 81.4487 358.356 82.4177 362.232 83.1017L367.02 83.9567C373.404 85.0967 379.161 86.6357 384.291 88.5737C389.535 90.3978 393.639 93.0768 396.603 96.6108C399.682 100.031 401.221 104.705 401.221 110.633C401.221 119.525 397.971 126.422 391.473 131.324C385.089 136.112 376.482 138.506 365.652 138.506Z" fill="white"/>
  </g>
  <defs>
    <linearGradient id="paint0_linear_256_829" x1="595.209" y1="202.13" x2="496.327" y2="-55.8896" gradientUnits="userSpaceOnUse">
      <stop stop-color="#9898FF"/>
      <stop offset="0.904121" stop-color="#6AE1D9"/>
    </linearGradient>
    <linearGradient id="paint1_linear_256_829" x1="595.209" y1="202.13" x2="496.327" y2="-55.8896" gradientUnits="userSpaceOnUse">
      <stop stop-color="#9898FF"/>
      <stop offset="0.904121" stop-color="#6AE1D9"/>
    </linearGradient>
    <linearGradient id="paint2_linear_256_829" x1="595.209" y1="202.13" x2="496.327" y2="-55.8896" gradientUnits="userSpaceOnUse">
      <stop stop-color="#9898FF"/>
      <stop offset="0.904121" stop-color="#6AE1D9"/>
    </linearGradient>
    <linearGradient id="paint3_linear_256_829" x1="595.209" y1="202.13" x2="496.327" y2="-55.8896" gradientUnits="userSpaceOnUse">
      <stop stop-color="#9898FF"/>
      <stop offset="0.904121" stop-color="#6AE1D9"/>
    </linearGradient>
    <clipPath id="clip0_256_829">
      <rect width="595" height="150" fill="white"/>
    </clipPath>
  </defs>
</svg>