<svg viewBox="0 0 140 47" fill="none" xmlns="http://www.w3.org/2000/svg">
  <g clip-path="url(#clip0_790_19866)">
    <path d="M104.235 8.84212V24.2919C104.235 29.1677 108.239 33.1204 113.177 33.1204C116.337 33.1204 119.115 31.5013 120.705 29.0573C121.508 27.6026 122.524 27.6026 123.531 29.0573C125.121 31.5013 127.899 33.1204 131.059 33.1204C135.997 33.1204 140 29.1677 140 24.2919C140 19.4161 135.997 15.4635 131.059 15.4635C128.259 15.4635 125.759 16.7344 124.12 18.724C123.519 19.4538 122.118 20.0783 122.067 18.1722C122.067 16.3342 122.114 9.36613 122.118 8.87002C122.118 8.84977 122.118 8.83183 122.118 8.81157C122.101 3.9498 118.104 0.0136719 113.177 0.0136719C108.239 0.0136719 104.235 3.9663 104.235 8.84212Z" fill="url(#paint0_linear_790_19866)"/>
    <path d="M4.15723 31.332V3.77734H9.11706V14.2087H9.82561C10.0356 13.7889 10.3636 13.369 10.8097 12.9491C11.2558 12.5292 11.8463 12.1881 12.5811 11.9256C13.3421 11.637 14.3 11.4926 15.4546 11.4926C16.9767 11.4926 18.3019 11.8469 19.4304 12.5555C20.585 13.2378 21.4773 14.1956 22.1071 15.429C22.7369 16.6362 23.0518 18.0533 23.0518 19.6803V31.332H18.092V20.0739C18.092 18.6044 17.7246 17.5022 16.9898 16.7674C16.2813 16.0326 15.2578 15.6652 13.9194 15.6652C12.3974 15.6652 11.2165 16.1769 10.3767 17.2004C9.53694 18.1976 9.11706 19.6016 9.11706 21.4123V31.332H4.15723Z" fill="black"/>
    <path d="M35.5458 31.6469C34.0238 31.6469 32.6854 31.3057 31.5307 30.6234C30.4023 29.9149 29.5232 28.9439 28.8934 27.7105C28.2635 26.4771 27.9486 25.06 27.9486 23.4592V11.8076H32.9085V23.0656C32.9085 24.5352 33.2627 25.6374 33.9713 26.3722C34.7061 27.1069 35.7427 27.4743 37.081 27.4743C38.6031 27.4743 39.784 26.9757 40.6238 25.9785C41.4635 24.9551 41.8834 23.538 41.8834 21.7272V11.8076H46.8433V31.332H41.9621V28.7733H41.2536C40.9387 29.4294 40.3482 30.0723 39.4822 30.7022C38.6162 31.332 37.3041 31.6469 35.5458 31.6469Z" fill="black"/>
    <path d="M64.0929 31.8831C62.3346 31.8831 60.9832 31.5813 60.0384 30.9777C59.0937 30.3741 58.3983 29.705 57.9521 28.9702H57.2436V31.332H52.3625V3.77734H57.3223V14.0513H58.0309C58.3195 13.5789 58.7001 13.1328 59.1724 12.7129C59.671 12.293 60.314 11.9519 61.1012 11.6895C61.9148 11.4008 62.912 11.2565 64.0929 11.2565C65.6674 11.2565 67.1239 11.6501 68.4623 12.4374C69.8006 13.1984 70.8766 14.3268 71.6901 15.8227C72.5036 17.3185 72.9104 19.1292 72.9104 21.2549V21.8847C72.9104 24.0103 72.5036 25.8211 71.6901 27.3169C70.8766 28.8127 69.8006 29.9543 68.4623 30.7415C67.1239 31.5026 65.6674 31.8831 64.0929 31.8831ZM62.5971 27.5531C64.1191 27.5531 65.3919 27.0676 66.4154 26.0966C67.4388 25.0994 67.9505 23.6561 67.9505 21.7666V21.373C67.9505 19.4835 67.4388 18.0533 66.4154 17.0823C65.4181 16.0851 64.1454 15.5865 62.5971 15.5865C61.075 15.5865 59.8022 16.0851 58.7788 17.0823C57.7553 18.0533 57.2436 19.4835 57.2436 21.373V21.7666C57.2436 23.6561 57.7553 25.0994 58.7788 26.0966C59.8022 27.0676 61.075 27.5531 62.5971 27.5531Z" fill="black"/>
    <path d="M85.5735 31.8831C83.028 31.8831 80.9417 31.332 79.3147 30.2298C77.6876 29.1276 76.7035 27.5531 76.3624 25.5062L80.9286 24.3252C81.1123 25.2437 81.4141 25.9654 81.834 26.4902C82.2801 27.0151 82.8181 27.3956 83.4479 27.6318C84.1039 27.8417 84.8125 27.9467 85.5735 27.9467C86.7282 27.9467 87.5811 27.7499 88.1322 27.3562C88.6833 26.9364 88.9588 26.4246 88.9588 25.8211C88.9588 25.2175 88.6964 24.7582 88.1715 24.4433C87.6467 24.1022 86.8069 23.8266 85.6523 23.6167L84.5501 23.4199C83.1854 23.1574 81.9389 22.8032 80.8105 22.357C79.6821 21.8847 78.7767 21.2417 78.0944 20.4282C77.4121 19.6147 77.0709 18.565 77.0709 17.2791C77.0709 15.3372 77.7795 13.8545 79.1966 12.831C80.6137 11.7813 82.4769 11.2565 84.7862 11.2565C86.9644 11.2565 88.7751 11.7419 90.2185 12.7129C91.6618 13.6839 92.6065 14.9567 93.0526 16.5312L88.4471 17.9483C88.2371 16.9511 87.8041 16.2425 87.1481 15.8227C86.5182 15.4028 85.731 15.1928 84.7862 15.1928C83.8415 15.1928 83.1199 15.3634 82.6212 15.7046C82.1226 16.0195 81.8733 16.4656 81.8733 17.0429C81.8733 17.6728 82.1357 18.1451 82.6606 18.46C83.1854 18.7487 83.894 18.9718 84.7862 19.1292L85.8884 19.326C87.358 19.5885 88.6833 19.9427 89.8642 20.3889C91.0713 20.8087 92.0161 21.4254 92.6984 22.239C93.4069 23.0262 93.7612 24.1022 93.7612 25.4668C93.7612 27.5137 93.0133 29.1014 91.5174 30.2298C90.0479 31.332 88.0666 31.8831 85.5735 31.8831Z" fill="black"/>
  </g>
  <path d="M51.2469 44.1616C50.7314 44.1616 50.3352 44.0731 50.0582 43.8961C49.7813 43.7192 49.5774 43.523 49.4466 43.3076H49.2389V44H47.8078V35.9216H49.2619V38.9337H49.4697C49.5543 38.7952 49.6659 38.6644 49.8044 38.5413C49.9505 38.4182 50.139 38.3182 50.3698 38.2413C50.6083 38.1566 50.9007 38.1143 51.2469 38.1143C51.7085 38.1143 52.1355 38.2297 52.5279 38.4605C52.9203 38.6837 53.2357 39.0145 53.4743 39.453C53.7128 39.8916 53.832 40.4224 53.832 41.0456V41.2303C53.832 41.8535 53.7128 42.3843 53.4743 42.8229C53.2357 43.2614 52.9203 43.5961 52.5279 43.8269C52.1355 44.05 51.7085 44.1616 51.2469 44.1616ZM50.8084 42.8921C51.2546 42.8921 51.6278 42.7498 51.9278 42.4651C52.2279 42.1727 52.3779 41.7496 52.3779 41.1956V41.0802C52.3779 40.5263 52.2279 40.107 51.9278 39.8223C51.6355 39.53 51.2623 39.3838 50.8084 39.3838C50.3621 39.3838 49.989 39.53 49.6889 39.8223C49.3889 40.107 49.2389 40.5263 49.2389 41.0802V41.1956C49.2389 41.7496 49.3889 42.1727 49.6889 42.4651C49.989 42.7498 50.3621 42.8921 50.8084 42.8921ZM55.7904 46.3081V45.0386H58.9063C59.1218 45.0386 59.2295 44.9232 59.2295 44.6924V43.2499H59.0217C58.9602 43.3807 58.864 43.5114 58.7332 43.6422C58.6024 43.773 58.4255 43.8807 58.2024 43.9654C57.9792 44.05 57.6946 44.0923 57.3484 44.0923C56.9021 44.0923 56.5097 43.9923 56.1712 43.7923C55.8404 43.5845 55.5827 43.2999 55.398 42.9383C55.2134 42.5767 55.121 42.1612 55.121 41.6919V38.2759H56.5751V41.5765C56.5751 42.0073 56.679 42.3305 56.8867 42.5459C57.1022 42.7613 57.4061 42.869 57.7984 42.869C58.2447 42.869 58.5909 42.7228 58.8371 42.4305C59.0833 42.1304 59.2064 41.715 59.2064 41.1841V38.2759H60.6605V45.0156C60.6605 45.4079 60.5451 45.7195 60.3143 45.9504C60.0835 46.1889 59.7757 46.3081 59.391 46.3081H55.7904ZM65.2088 44V38.2759H66.6399V38.8991H66.8476C66.9476 38.7067 67.113 38.5413 67.3438 38.4028C67.5746 38.2567 67.8785 38.1836 68.2555 38.1836C68.6633 38.1836 68.9903 38.2643 69.2365 38.4259C69.4827 38.5798 69.6712 38.7837 69.802 39.0376H70.0097C70.1405 38.7914 70.3251 38.5875 70.5637 38.4259C70.8022 38.2643 71.1407 38.1836 71.5792 38.1836C71.9331 38.1836 72.2524 38.2605 72.5371 38.4144C72.8294 38.5606 73.0603 38.7875 73.2295 39.0953C73.4065 39.3953 73.495 39.7762 73.495 40.2378V44H72.0408V40.3416C72.0408 40.0262 71.9601 39.7915 71.7985 39.6377C71.6369 39.4761 71.41 39.3953 71.1176 39.3953C70.7868 39.3953 70.529 39.503 70.3444 39.7185C70.1674 39.9262 70.0789 40.2262 70.0789 40.6186V44H68.6248V40.3416C68.6248 40.0262 68.5441 39.7915 68.3825 39.6377C68.2209 39.4761 67.994 39.3953 67.7016 39.3953C67.3708 39.3953 67.113 39.503 66.9284 39.7185C66.7514 39.9262 66.6629 40.2262 66.6629 40.6186V44H65.2088ZM77.7824 44.1616C77.2131 44.1616 76.7015 44.0462 76.2476 43.8154C75.7936 43.5845 75.4359 43.2499 75.1743 42.8113C74.9127 42.3728 74.7819 41.8458 74.7819 41.2303V41.0456C74.7819 40.4301 74.9127 39.9031 75.1743 39.4646C75.4359 39.026 75.7936 38.6913 76.2476 38.4605C76.7015 38.2297 77.2131 38.1143 77.7824 38.1143C78.3518 38.1143 78.8634 38.2297 79.3173 38.4605C79.7713 38.6913 80.129 39.026 80.3906 39.4646C80.6522 39.9031 80.783 40.4301 80.783 41.0456V41.2303C80.783 41.8458 80.6522 42.3728 80.3906 42.8113C80.129 43.2499 79.7713 43.5845 79.3173 43.8154C78.8634 44.0462 78.3518 44.1616 77.7824 44.1616ZM77.7824 42.869C78.2287 42.869 78.598 42.7267 78.8903 42.442C79.1827 42.1497 79.3289 41.7342 79.3289 41.1956V41.0802C79.3289 40.5417 79.1827 40.1301 78.8903 39.8454C78.6057 39.553 78.2364 39.4069 77.7824 39.4069C77.3362 39.4069 76.9669 39.553 76.6746 39.8454C76.3822 40.1301 76.236 40.5417 76.236 41.0802V41.1956C76.236 41.7342 76.3822 42.1497 76.6746 42.442C76.9669 42.7267 77.3362 42.869 77.7824 42.869ZM81.8161 44V42.2689L84.9551 39.6608V39.4761H81.9315V38.2759H86.5477V40.007L83.4086 42.6151V42.7998H86.64V44H81.8161ZM87.9969 44V38.2759H89.451V44H87.9969ZM88.724 37.6065C88.4624 37.6065 88.2393 37.5219 88.0546 37.3526C87.8777 37.1834 87.7892 36.9603 87.7892 36.6833C87.7892 36.4063 87.8777 36.1832 88.0546 36.0139C88.2393 35.8447 88.4624 35.76 88.724 35.76C88.9933 35.76 89.2164 35.8447 89.3933 36.0139C89.5703 36.1832 89.6588 36.4063 89.6588 36.6833C89.6588 36.9603 89.5703 37.1834 89.3933 37.3526C89.2164 37.5219 88.9933 37.6065 88.724 37.6065ZM91.0624 44V35.9216H92.5165V44H91.0624ZM94.1278 44V35.9216H95.5819V44H94.1278ZM98.9705 44.1616C98.5628 44.1616 98.1973 44.0923 97.8742 43.9538C97.5511 43.8077 97.2933 43.5999 97.101 43.3306C96.9163 43.0537 96.824 42.719 96.824 42.3266C96.824 41.9342 96.9163 41.6073 97.101 41.3457C97.2933 41.0764 97.5549 40.8764 97.8857 40.7456C98.2243 40.6071 98.6089 40.5378 99.0398 40.5378H100.609V40.2147C100.609 39.9454 100.525 39.7261 100.355 39.5569C100.186 39.3799 99.9169 39.2915 99.5476 39.2915C99.186 39.2915 98.9167 39.3761 98.7397 39.5453C98.5628 39.7069 98.4474 39.9185 98.3935 40.1801L97.0548 39.73C97.1471 39.4376 97.2933 39.1722 97.4934 38.9337C97.7011 38.6875 97.9742 38.4913 98.3127 38.3451C98.6589 38.1913 99.0783 38.1143 99.5707 38.1143C100.325 38.1143 100.921 38.3028 101.359 38.6798C101.798 39.0568 102.017 39.603 102.017 40.3186V42.4536C102.017 42.6844 102.125 42.7998 102.34 42.7998H102.802V44H101.833C101.548 44 101.313 43.9308 101.129 43.7923C100.944 43.6538 100.852 43.4691 100.852 43.2383V43.2268H100.632C100.602 43.3191 100.532 43.4422 100.425 43.5961C100.317 43.7423 100.148 43.8731 99.9169 43.9885C99.6861 44.1039 99.3706 44.1616 98.9705 44.1616ZM99.2244 42.9844C99.6322 42.9844 99.963 42.8729 100.217 42.6498C100.479 42.4189 100.609 42.115 100.609 41.7381V41.6226H99.1437C98.8744 41.6226 98.6628 41.6803 98.5089 41.7958C98.355 41.9112 98.2781 42.0727 98.2781 42.2805C98.2781 42.4882 98.3589 42.6574 98.5205 42.7882C98.682 42.919 98.9167 42.9844 99.2244 42.9844Z" fill="black"/>
  <defs>
    <linearGradient id="paint0_linear_790_19866" x1="110.484" y1="0.0136719" x2="123.336" y2="45.7466" gradientUnits="userSpaceOnUse">
      <stop stop-color="#6AE1D9"/>
      <stop offset="1" stop-color="#9898FF"/>
    </linearGradient>
    <clipPath id="clip0_790_19866">
      <rect width="140" height="35" fill="white"/>
    </clipPath>
  </defs>
</svg>